<?xml version="1.0" encoding="iso-8859-1"?>
<!-- Generator: Adobe Illustrator 19.0.0, SVG Export Plug-In . SVG Version: 6.00 Build 0)  -->
<svg version="1.1" id="Layer_1" xmlns="http://www.w3.org/2000/svg" xmlns:xlink="http://www.w3.org/1999/xlink" x="0px" y="0px"
	 viewBox="0 0 512 512" style="enable-background:new 0 0 512 512;" xml:space="preserve">
<style>
    path {
	    fill: #888888;
	}
    <!-- Doesn't seem to work on firefox
    path {
	    fill: #000000;
	}
	@media ( prefers-color-scheme: dark ) {
	    path {
		    fill: #FFFFFF;
		}
	} 
    -->
</style>
<g>
	<g>
		<path d="M461.913,55.652H50.087C22.469,55.652,0,78.121,0,105.739v300.522c0,27.618,22.469,50.087,50.087,50.087
			c15.589,0,396.091,0,411.826,0c27.618,0,50.087-22.469,50.087-50.087V105.739C512,78.121,489.531,55.652,461.913,55.652z
			 M143.884,422.957l16.696-33.391h190.841l16.696,33.391H143.884z M478.609,406.261c0,9.206-7.49,16.696-16.696,16.696h-56.464
			l-28.777-57.553c-2.829-5.656-8.609-9.229-14.934-9.229H150.261c-6.324,0-12.104,3.573-14.934,9.229l-28.777,57.553H50.087
			c-9.206,0-16.696-7.49-16.696-16.696V105.739c0-9.206,7.49-16.696,16.696-16.696h411.826c9.206,0,16.696,7.49,16.696,16.696
			V406.261z"/>
	</g>
</g>
<g>
	<g>
		<path d="M428.522,122.435H83.478c-9.22,0-16.696,7.475-16.696,16.696s7.475,16.696,16.696,16.696h345.043
			c9.22,0,16.696-7.475,16.696-16.696S437.742,122.435,428.522,122.435z"/>
	</g>
</g>
<g>
	<g>
		<path d="M378.435,189.217h-244.87c-36.824,0-66.783,29.959-66.783,66.783s29.959,66.783,66.783,66.783h244.87
			c36.824,0,66.783-29.959,66.783-66.783S415.259,189.217,378.435,189.217z M133.565,289.391c-18.412,0-33.391-14.979-33.391-33.391
			c0-18.412,14.979-33.391,33.391-33.391c18.412,0,33.391,14.979,33.391,33.391C166.957,274.412,151.977,289.391,133.565,289.391z
			 M320.637,289.391H191.363c5.702-9.831,8.984-21.231,8.984-33.391c0-12.16-3.282-23.56-8.984-33.391h129.273
			c-5.702,9.832-8.984,21.231-8.984,33.391C311.652,268.16,314.935,279.56,320.637,289.391z M378.435,289.391
			c-18.412,0-33.391-14.979-33.391-33.391c0-18.412,14.979-33.391,33.391-33.391c18.412,0,33.391,14.979,33.391,33.391
			C411.826,274.412,396.847,289.391,378.435,289.391z"/>
	</g>
</g>
</svg>
